<svg xmlns="http://www.w3.org/2000/svg" xmlns:xlink="http://www.w3.org/1999/xlink" width="2000" zoomAndPan="magnify" viewBox="0 0 1500 1499.999933" height="2000" preserveAspectRatio="xMidYMid meet" version="1.0"><defs><g/><clipPath id="82a530d9c5"><rect x="0" width="1277" y="0" height="178"/></clipPath></defs><g transform="matrix(1, 0, 0, 1, 108, 661)"><g clip-path="url(#82a530d9c5)"><g fill="#f3e0b8" fill-opacity="1"><g transform="translate(1.456226, 133.047463)"><g><path d="M 98.578125 -123.875 C 99.285156 -123.875 99.785156 -123.695312 100.078125 -123.34375 C 100.367188 -122.988281 100.398438 -122.519531 100.171875 -121.9375 L 52.03125 2.296875 C 51.789062 2.773438 51.285156 3.015625 50.515625 3.015625 C 49.753906 3.015625 49.253906 2.773438 49.015625 2.296875 L 1.234375 -121.9375 C 1.003906 -122.519531 1.035156 -122.988281 1.328125 -123.34375 C 1.617188 -123.695312 2.0625 -123.875 2.65625 -123.875 L 24.25 -123.875 C 25.070312 -123.875 25.601562 -123.582031 25.84375 -123 L 50.609375 -53.796875 L 75.390625 -123 C 75.628906 -123.582031 76.160156 -123.875 76.984375 -123.875 Z M 98.578125 -123.875 "/></g></g></g><g fill="#f3e0b8" fill-opacity="1"><g transform="translate(96.133256, 133.047463)"><g><path d="M 69.546875 -125.640625 C 79.691406 -125.640625 88.566406 -123.84375 96.171875 -120.25 C 103.785156 -116.65625 110.160156 -111.816406 115.296875 -105.734375 C 120.429688 -99.660156 124.265625 -92.847656 126.796875 -85.296875 C 129.335938 -77.742188 130.609375 -70.015625 130.609375 -62.109375 C 130.609375 -54.210938 129.335938 -46.488281 126.796875 -38.9375 C 124.265625 -31.382812 120.429688 -24.539062 115.296875 -18.40625 C 110.160156 -12.269531 103.785156 -7.398438 96.171875 -3.796875 C 88.566406 -0.203125 79.691406 1.59375 69.546875 1.59375 C 59.285156 1.59375 50.289062 -0.203125 42.5625 -3.796875 C 34.832031 -7.398438 28.429688 -12.269531 23.359375 -18.40625 C 18.285156 -24.539062 14.476562 -31.382812 11.9375 -38.9375 C 9.40625 -46.488281 8.140625 -54.210938 8.140625 -62.109375 C 8.140625 -70.015625 9.40625 -77.742188 11.9375 -85.296875 C 14.476562 -92.847656 18.285156 -99.660156 23.359375 -105.734375 C 28.429688 -111.816406 34.832031 -116.65625 42.5625 -120.25 C 50.289062 -123.84375 59.285156 -125.640625 69.546875 -125.640625 Z M 69.546875 -20.703125 C 77.804688 -20.703125 84.675781 -22.707031 90.15625 -26.71875 C 95.644531 -30.726562 99.773438 -35.859375 102.546875 -42.109375 C 105.328125 -48.367188 106.71875 -54.921875 106.71875 -61.765625 C 106.71875 -68.722656 105.328125 -75.359375 102.546875 -81.671875 C 99.773438 -87.984375 95.644531 -93.144531 90.15625 -97.15625 C 84.675781 -101.164062 77.804688 -103.171875 69.546875 -103.171875 C 61.285156 -103.171875 54.382812 -101.164062 48.84375 -97.15625 C 43.300781 -93.144531 39.140625 -87.984375 36.359375 -81.671875 C 33.585938 -75.359375 32.203125 -68.722656 32.203125 -61.765625 C 32.203125 -54.921875 33.585938 -48.367188 36.359375 -42.109375 C 39.140625 -35.859375 43.300781 -30.726562 48.84375 -26.71875 C 54.382812 -22.707031 61.285156 -20.703125 69.546875 -20.703125 Z M 69.546875 -20.703125 "/></g></g></g><g fill="#f3e0b8" fill-opacity="1"><g transform="translate(230.80477, 133.047463)"><g><path d="M 0.703125 0 C 0.117188 0 -0.347656 -0.234375 -0.703125 -0.703125 C -1.054688 -1.179688 -1.054688 -1.65625 -0.703125 -2.125 L 59.640625 -101.046875 L 5.84375 -101.046875 C 4.78125 -101.046875 4.25 -101.519531 4.25 -102.46875 L 4.25 -122.46875 C 4.25 -123.40625 4.78125 -123.875 5.84375 -123.875 L 98.046875 -123.875 C 98.753906 -123.875 99.253906 -123.664062 99.546875 -123.25 C 99.835938 -122.84375 99.867188 -122.34375 99.640625 -121.75 L 39.28125 -22.828125 L 98.046875 -22.828125 C 99.109375 -22.828125 99.640625 -22.351562 99.640625 -21.40625 L 99.640625 -1.421875 C 99.640625 -0.472656 99.109375 0 98.046875 0 Z M 0.703125 0 "/></g></g></g><g fill="#d39b53" fill-opacity="1"><g transform="translate(327.612917, 133.047463)"><g><path d="M 34.6875 -123.875 C 40.707031 -123.875 47.046875 -123.460938 53.703125 -122.640625 C 60.367188 -121.816406 66.859375 -120.222656 73.171875 -117.859375 C 79.484375 -115.503906 85.175781 -112.050781 90.25 -107.5 C 95.320312 -102.957031 99.390625 -96.96875 102.453125 -89.53125 C 105.523438 -82.101562 107.0625 -72.90625 107.0625 -61.9375 C 107.0625 -51.320312 105.554688 -42.382812 102.546875 -35.125 C 99.546875 -27.875 95.507812 -21.914062 90.4375 -17.25 C 85.363281 -12.59375 79.695312 -9.023438 73.4375 -6.546875 C 67.1875 -4.066406 60.695312 -2.351562 53.96875 -1.40625 C 47.25 -0.46875 40.820312 0 34.6875 0 L 13.984375 0 L 13.984375 -123.875 Z M 34.6875 -20.171875 C 34.6875 -20.171875 35.925781 -20.082031 38.40625 -19.90625 C 40.882812 -19.726562 44.066406 -19.816406 47.953125 -20.171875 C 51.847656 -20.523438 56.007812 -21.378906 60.4375 -22.734375 C 64.863281 -24.097656 69.019531 -26.3125 72.90625 -29.375 C 76.800781 -32.445312 79.988281 -36.609375 82.46875 -41.859375 C 84.945312 -47.109375 86.1875 -53.800781 86.1875 -61.9375 C 86.1875 -70.195312 84.945312 -76.976562 82.46875 -82.28125 C 79.988281 -87.59375 76.800781 -91.78125 72.90625 -94.84375 C 69.019531 -97.914062 64.863281 -100.097656 60.4375 -101.390625 C 56.007812 -102.691406 51.847656 -103.488281 47.953125 -103.78125 C 44.066406 -104.082031 40.882812 -104.144531 38.40625 -103.96875 C 35.925781 -103.789062 34.6875 -103.703125 34.6875 -103.703125 Z M 34.6875 -20.171875 "/></g></g></g><g fill="#d39b53" fill-opacity="1"><g transform="translate(438.393922, 133.047463)"><g><path d="M 70.25 -126.703125 C 80.394531 -126.703125 89.273438 -124.90625 96.890625 -121.3125 C 104.503906 -117.71875 110.847656 -112.910156 115.921875 -106.890625 C 120.992188 -100.867188 124.828125 -94.082031 127.421875 -86.53125 C 130.015625 -78.988281 131.3125 -71.203125 131.3125 -63.171875 C 131.3125 -55.148438 130.039062 -47.363281 127.5 -39.8125 C 124.96875 -32.257812 121.164062 -25.472656 116.09375 -19.453125 C 111.019531 -13.441406 104.644531 -8.632812 96.96875 -5.03125 C 89.300781 -1.4375 80.394531 0.359375 70.25 0.359375 C 59.988281 0.359375 51.050781 -1.4375 43.4375 -5.03125 C 35.832031 -8.632812 29.460938 -13.441406 24.328125 -19.453125 C 19.203125 -25.472656 15.367188 -32.257812 12.828125 -39.8125 C 10.296875 -47.363281 9.03125 -55.148438 9.03125 -63.171875 C 9.03125 -71.203125 10.296875 -78.988281 12.828125 -86.53125 C 15.367188 -94.082031 19.203125 -100.867188 24.328125 -106.890625 C 29.460938 -112.910156 35.863281 -117.71875 43.53125 -121.3125 C 51.195312 -124.90625 60.101562 -126.703125 70.25 -126.703125 Z M 70.25 -19.640625 C 77.925781 -19.640625 84.503906 -21.203125 89.984375 -24.328125 C 95.472656 -27.453125 99.835938 -31.609375 103.078125 -36.796875 C 106.328125 -41.992188 108.507812 -47.6875 109.625 -53.875 C 110.75 -60.070312 110.75 -66.238281 109.625 -72.375 C 108.507812 -78.507812 106.328125 -84.171875 103.078125 -89.359375 C 99.835938 -94.554688 95.472656 -98.71875 89.984375 -101.84375 C 84.503906 -104.96875 77.925781 -106.53125 70.25 -106.53125 C 62.582031 -106.53125 56.035156 -104.96875 50.609375 -101.84375 C 45.179688 -98.71875 40.816406 -94.554688 37.515625 -89.359375 C 34.210938 -84.171875 32 -78.507812 30.875 -72.375 C 29.757812 -66.238281 29.757812 -60.070312 30.875 -53.875 C 32 -47.6875 34.179688 -41.992188 37.421875 -36.796875 C 40.671875 -31.609375 45.035156 -27.453125 50.515625 -24.328125 C 56.003906 -21.203125 62.582031 -19.640625 70.25 -19.640625 Z M 70.25 -19.640625 "/></g></g></g><g fill="#f3e0b8" fill-opacity="1"><g transform="translate(573.074559, 133.047463)"><g><path d="M 34.515625 -123.875 C 40.523438 -123.875 46.832031 -123.460938 53.4375 -122.640625 C 60.050781 -121.816406 66.484375 -120.222656 72.734375 -117.859375 C 78.984375 -115.503906 84.644531 -112.050781 89.71875 -107.5 C 94.789062 -102.957031 98.832031 -97 101.84375 -89.625 C 104.851562 -82.257812 106.359375 -73.148438 106.359375 -62.296875 C 106.359375 -51.796875 104.882812 -42.882812 101.9375 -35.5625 C 98.988281 -28.25 94.976562 -22.265625 89.90625 -17.609375 C 84.832031 -12.953125 79.195312 -9.351562 73 -6.8125 C 66.800781 -4.28125 60.367188 -2.507812 53.703125 -1.5 C 47.046875 -0.5 40.648438 0 34.515625 0 L 14.515625 0 C 13.328125 0 12.734375 -0.472656 12.734375 -1.421875 L 12.734375 -122.46875 C 12.734375 -123.40625 13.328125 -123.875 14.515625 -123.875 Z M 36.28125 -22.125 C 39.226562 -22 42.707031 -22.113281 46.71875 -22.46875 C 50.726562 -22.820312 54.828125 -23.675781 59.015625 -25.03125 C 63.203125 -26.394531 67.09375 -28.550781 70.6875 -31.5 C 74.289062 -34.445312 77.210938 -38.425781 79.453125 -43.4375 C 81.703125 -48.457031 82.828125 -54.742188 82.828125 -62.296875 C 82.828125 -73.265625 80.789062 -81.664062 76.71875 -87.5 C 72.644531 -93.34375 67.128906 -97.328125 60.171875 -99.453125 C 53.210938 -101.578125 45.25 -102.40625 36.28125 -101.9375 Z M 36.28125 -22.125 "/></g></g></g><g fill="#f3e0b8" fill-opacity="1"><g transform="translate(683.855564, 133.047463)"><g><path d="M 36.109375 -101.40625 L 36.109375 -72.734375 L 84.421875 -72.734375 C 85.472656 -72.734375 86 -72.257812 86 -71.3125 L 86 -52.03125 C 86 -51.082031 85.472656 -50.609375 84.421875 -50.609375 L 36.109375 -50.609375 L 36.109375 -22.296875 L 94.5 -22.296875 C 95.675781 -22.296875 96.265625 -21.820312 96.265625 -20.875 L 96.265625 -1.421875 C 96.265625 -0.472656 95.675781 0 94.5 0 L 14.328125 0 C 13.265625 0 12.734375 -0.472656 12.734375 -1.421875 L 12.734375 -122.46875 C 12.734375 -123.40625 13.265625 -123.875 14.328125 -123.875 L 94.5 -123.875 C 95.675781 -123.875 96.265625 -123.40625 96.265625 -122.46875 L 96.265625 -102.8125 C 96.265625 -101.875 95.675781 -101.40625 94.5 -101.40625 Z M 36.109375 -101.40625 "/></g></g></g><g fill="#f3e0b8" fill-opacity="1"><g transform="translate(781.541016, 133.047463)"><g><path d="M 47.609375 1.765625 C 40.410156 1.535156 33.859375 0.0351562 27.953125 -2.734375 C 22.054688 -5.515625 17.335938 -9.585938 13.796875 -14.953125 C 10.265625 -20.316406 8.4375 -26.894531 8.3125 -34.6875 C 8.3125 -35.507812 8.90625 -35.921875 10.09375 -35.921875 L 30.078125 -35.921875 C 31.265625 -35.921875 31.859375 -35.507812 31.859375 -34.6875 C 32.085938 -30.082031 33.765625 -26.660156 36.890625 -24.421875 C 40.023438 -22.179688 43.597656 -21.0625 47.609375 -21.0625 C 51.734375 -21.0625 55.390625 -22.296875 58.578125 -24.765625 C 61.765625 -27.242188 63.359375 -30.671875 63.359375 -35.046875 C 63.359375 -38.109375 62.53125 -40.757812 60.875 -43 C 59.226562 -45.238281 57.191406 -47.007812 54.765625 -48.3125 C 52.347656 -49.613281 49.960938 -50.320312 47.609375 -50.4375 C 47.128906 -50.4375 45.003906 -50.613281 41.234375 -50.96875 C 37.460938 -51.320312 33.332031 -52.5 28.84375 -54.5 C 22.351562 -57.570312 17.304688 -62 13.703125 -67.78125 C 10.109375 -73.5625 8.3125 -80.109375 8.3125 -87.421875 C 8.3125 -95.328125 10.171875 -102.109375 13.890625 -107.765625 C 17.609375 -113.429688 22.472656 -117.796875 28.484375 -120.859375 C 34.503906 -123.929688 40.878906 -125.46875 47.609375 -125.46875 C 54.804688 -125.46875 61.320312 -123.960938 67.15625 -120.953125 C 73 -117.953125 77.628906 -113.765625 81.046875 -108.390625 C 84.472656 -103.023438 86.242188 -96.800781 86.359375 -89.71875 C 86.359375 -88.78125 85.769531 -88.3125 84.59375 -88.3125 L 64.765625 -88.3125 C 63.585938 -88.3125 63 -88.78125 63 -89.71875 C 62.882812 -94.207031 61.320312 -97.507812 58.3125 -99.625 C 55.300781 -101.75 51.734375 -102.8125 47.609375 -102.8125 C 43.242188 -102.8125 39.523438 -101.539062 36.453125 -99 C 33.390625 -96.46875 31.859375 -92.609375 31.859375 -87.421875 C 31.859375 -82.941406 33.476562 -79.34375 36.71875 -76.625 C 39.96875 -73.914062 43.597656 -72.5625 47.609375 -72.5625 C 48.078125 -72.5625 50.171875 -72.382812 53.890625 -72.03125 C 57.609375 -71.675781 61.648438 -70.492188 66.015625 -68.484375 C 72.734375 -65.421875 77.863281 -60.910156 81.40625 -54.953125 C 84.945312 -48.992188 86.71875 -42.359375 86.71875 -35.046875 C 86.71875 -27.140625 84.859375 -20.441406 81.140625 -14.953125 C 77.421875 -9.460938 72.582031 -5.300781 66.625 -2.46875 C 60.664062 0.351562 54.328125 1.765625 47.609375 1.765625 Z M 47.609375 1.765625 "/></g></g></g><g fill="#f3e0b8" fill-opacity="1"><g transform="translate(871.262979, 133.047463)"><g><path d="M 36.109375 -101.40625 L 36.109375 -72.734375 L 84.421875 -72.734375 C 85.472656 -72.734375 86 -72.257812 86 -71.3125 L 86 -52.03125 C 86 -51.082031 85.472656 -50.609375 84.421875 -50.609375 L 36.109375 -50.609375 L 36.109375 -22.296875 L 94.5 -22.296875 C 95.675781 -22.296875 96.265625 -21.820312 96.265625 -20.875 L 96.265625 -1.421875 C 96.265625 -0.472656 95.675781 0 94.5 0 L 14.328125 0 C 13.265625 0 12.734375 -0.472656 12.734375 -1.421875 L 12.734375 -122.46875 C 12.734375 -123.40625 13.265625 -123.875 14.328125 -123.875 L 94.5 -123.875 C 95.675781 -123.875 96.265625 -123.40625 96.265625 -122.46875 L 96.265625 -102.8125 C 96.265625 -101.875 95.675781 -101.40625 94.5 -101.40625 Z M 36.109375 -101.40625 "/></g></g></g><g fill="#f3e0b8" fill-opacity="1"><g transform="translate(968.948453, 133.047463)"><g><path d="M 49.375 -50.078125 L 36.109375 -50.078125 L 36.109375 -1.421875 C 36.109375 -0.472656 35.515625 0 34.328125 0 L 14.15625 0 C 13.09375 0 12.5625 -0.472656 12.5625 -1.421875 L 12.5625 -122.46875 C 12.5625 -123.40625 13.09375 -123.875 14.15625 -123.875 L 54.15625 -123.875 C 55.570312 -123.875 57.898438 -123.753906 61.140625 -123.515625 C 64.390625 -123.285156 67.988281 -122.578125 71.9375 -121.390625 C 75.882812 -120.210938 79.6875 -118.328125 83.34375 -115.734375 C 87.007812 -113.140625 90.050781 -109.539062 92.46875 -104.9375 C 94.882812 -100.34375 96.09375 -94.382812 96.09375 -87.0625 C 96.09375 -77.625 93.847656 -70.28125 89.359375 -65.03125 C 84.878906 -59.78125 79.515625 -56.035156 73.265625 -53.796875 C 77.160156 -45.066406 81.140625 -36.425781 85.203125 -27.875 C 89.273438 -19.320312 93.257812 -10.679688 97.15625 -1.953125 C 97.394531 -1.472656 97.363281 -1.023438 97.0625 -0.609375 C 96.769531 -0.203125 96.328125 0 95.734375 0 L 73.625 0 C 72.914062 0 72.382812 -0.296875 72.03125 -0.890625 Z M 36.109375 -72.734375 L 54.15625 -72.734375 C 55.445312 -72.734375 57.09375 -72.847656 59.09375 -73.078125 C 61.101562 -73.316406 63.140625 -73.878906 65.203125 -74.765625 C 67.273438 -75.648438 69.019531 -77.066406 70.4375 -79.015625 C 71.851562 -80.960938 72.5625 -83.644531 72.5625 -87.0625 C 72.5625 -90.488281 71.789062 -93.175781 70.25 -95.125 C 68.71875 -97.070312 66.890625 -98.484375 64.765625 -99.359375 C 62.640625 -100.242188 60.570312 -100.804688 58.5625 -101.046875 C 56.5625 -101.285156 55.09375 -101.40625 54.15625 -101.40625 L 36.109375 -101.40625 Z M 36.109375 -72.734375 "/></g></g></g><g fill="#f3e0b8" fill-opacity="1"><g transform="translate(1068.580525, 133.047463)"><g><path d="M 76.09375 -103 C 76.09375 -102.164062 75.503906 -101.75 74.328125 -101.75 L 50.796875 -101.75 L 50.796875 -1.421875 C 50.796875 -0.472656 50.265625 0 49.203125 0 L 29.203125 0 C 28.140625 0 27.609375 -0.472656 27.609375 -1.421875 L 27.609375 -101.75 L 4.0625 -101.75 C 2.882812 -101.75 2.296875 -102.164062 2.296875 -103 L 2.296875 -121.40625 C 2.296875 -122.34375 2.882812 -122.8125 4.0625 -122.8125 L 74.328125 -122.8125 C 75.503906 -122.8125 76.09375 -122.34375 76.09375 -121.40625 Z M 76.09375 -103 "/></g></g></g><g fill="#f3e0b8" fill-opacity="1"><g transform="translate(1141.490646, 133.047463)"><g><path d="M 69.546875 -125.640625 C 79.691406 -125.640625 88.566406 -123.84375 96.171875 -120.25 C 103.785156 -116.65625 110.160156 -111.816406 115.296875 -105.734375 C 120.429688 -99.660156 124.265625 -92.847656 126.796875 -85.296875 C 129.335938 -77.742188 130.609375 -70.015625 130.609375 -62.109375 C 130.609375 -54.210938 129.335938 -46.488281 126.796875 -38.9375 C 124.265625 -31.382812 120.429688 -24.539062 115.296875 -18.40625 C 110.160156 -12.269531 103.785156 -7.398438 96.171875 -3.796875 C 88.566406 -0.203125 79.691406 1.59375 69.546875 1.59375 C 59.285156 1.59375 50.289062 -0.203125 42.5625 -3.796875 C 34.832031 -7.398438 28.429688 -12.269531 23.359375 -18.40625 C 18.285156 -24.539062 14.476562 -31.382812 11.9375 -38.9375 C 9.40625 -46.488281 8.140625 -54.210938 8.140625 -62.109375 C 8.140625 -70.015625 9.40625 -77.742188 11.9375 -85.296875 C 14.476562 -92.847656 18.285156 -99.660156 23.359375 -105.734375 C 28.429688 -111.816406 34.832031 -116.65625 42.5625 -120.25 C 50.289062 -123.84375 59.285156 -125.640625 69.546875 -125.640625 Z M 69.546875 -20.703125 C 77.804688 -20.703125 84.675781 -22.707031 90.15625 -26.71875 C 95.644531 -30.726562 99.773438 -35.859375 102.546875 -42.109375 C 105.328125 -48.367188 106.71875 -54.921875 106.71875 -61.765625 C 106.71875 -68.722656 105.328125 -75.359375 102.546875 -81.671875 C 99.773438 -87.984375 95.644531 -93.144531 90.15625 -97.15625 C 84.675781 -101.164062 77.804688 -103.171875 69.546875 -103.171875 C 61.285156 -103.171875 54.382812 -101.164062 48.84375 -97.15625 C 43.300781 -93.144531 39.140625 -87.984375 36.359375 -81.671875 C 33.585938 -75.359375 32.203125 -68.722656 32.203125 -61.765625 C 32.203125 -54.921875 33.585938 -48.367188 36.359375 -42.109375 C 39.140625 -35.859375 43.300781 -30.726562 48.84375 -26.71875 C 54.382812 -22.707031 61.285156 -20.703125 69.546875 -20.703125 Z M 69.546875 -20.703125 "/></g></g></g></g></g></svg>